<?xml version="1.0" standalone="no"?>
<!DOCTYPE svg PUBLIC "-//W3C//DTD SVG 20010904//EN"
 "http://www.w3.org/TR/2001/REC-SVG-20010904/DTD/svg10.dtd">
<svg version="1.0" xmlns="http://www.w3.org/2000/svg"
 width="3840.000000pt" height="2400.000000pt" viewBox="0 0 3840.000000 2400.000000"
 preserveAspectRatio="xMidYMid meet">
<metadata>
Created by potrace 1.16, written by Peter Selinger 2001-2019
</metadata>
<g transform="translate(0.000000,2400.000000) scale(0.100000,-0.100000)"
fill="#000000" stroke="none">
<path d="M37440 14415 c0 -13 -69 -15 -560 -15 l-560 0 0 -40 0 -40 -240 0
c-233 0 -240 1 -240 20 0 19 -7 20 -240 20 -153 0 -240 -4 -240 -10 0 -6 -87
-10 -240 -10 -153 0 -240 -4 -240 -10 0 -6 -113 -10 -320 -10 -313 0 -320 0
-320 -20 0 -20 -7 -20 -440 -20 -287 0 -440 -3 -440 -10 0 -6 -47 -10 -120
-10 -73 0 -120 -4 -120 -10 0 -6 -60 -10 -160 -10 -100 0 -160 -4 -160 -10 0
-6 -60 -10 -160 -10 -100 0 -160 -4 -160 -10 0 -6 -73 -10 -200 -10 -193 0
-200 -1 -200 -20 0 -20 -7 -20 -280 -20 -180 0 -280 -4 -280 -10 0 -6 -60 -10
-160 -10 -100 0 -160 4 -160 10 0 6 -33 10 -80 10 l-80 0 0 -40 0 -40 -200 0
c-127 0 -200 -4 -200 -10 0 -6 -60 -10 -160 -10 l-160 0 0 -30 0 -30 -360 0
c-233 0 -360 -4 -360 -10 0 -5 -18 -10 -40 -10 -38 0 -40 2 -40 30 l0 30 -240
0 c-153 0 -240 -4 -240 -10 0 -6 -60 -10 -160 -10 -100 0 -160 -4 -160 -10 0
-6 -33 -10 -80 -10 -73 0 -80 -2 -80 -20 0 -19 -7 -20 -120 -20 -73 0 -120 -4
-120 -10 0 -6 -33 -10 -80 -10 -47 0 -80 -4 -80 -10 0 -6 -47 -10 -120 -10
-73 0 -120 -4 -120 -10 0 -6 -60 -10 -160 -10 l-160 0 0 -30 0 -30 -120 0
c-73 0 -120 -4 -120 -10 0 -6 -33 -10 -80 -10 -47 0 -80 -4 -80 -10 0 -6 -47
-10 -120 -10 -113 0 -120 -1 -120 -20 0 -19 -7 -20 -160 -20 -153 0 -160 1
-160 20 0 19 -7 20 -219 20 -120 0 -246 3 -280 6 -52 6 -61 5 -61 -10 0 -14
-15 -16 -120 -16 -73 0 -120 -4 -120 -10 0 -5 -18 -10 -40 -10 l-40 0 0 -40 0
-40 120 0 c73 0 120 -4 120 -10 0 -6 -60 -10 -160 -10 l-160 0 0 30 0 30 -80
0 c-47 0 -80 -4 -80 -10 0 -6 -47 -10 -120 -10 -73 0 -120 -4 -120 -10 0 -6
-33 -10 -80 -10 -47 0 -80 -4 -80 -10 0 -5 -18 -10 -40 -10 -22 0 -40 -4 -40
-10 0 -6 -33 -10 -80 -10 -47 0 -80 -4 -80 -10 0 -5 -18 -10 -40 -10 -22 0
-40 -4 -40 -10 0 -5 -18 -10 -40 -10 -22 0 -40 -4 -40 -9 0 -9 -94 -17 -337
-27 -131 -6 -143 -8 -143 -25 0 -18 -9 -19 -120 -19 -73 0 -120 -4 -120 -10 0
-6 -33 -10 -80 -10 -47 0 -80 4 -80 10 0 6 -18 10 -40 10 l-40 0 0 -40 0 -40
-200 0 -200 0 0 -40 0 -40 -240 0 c-207 0 -240 -2 -240 -15 0 -12 16 -15 80
-15 79 0 80 0 80 -25 l0 -25 160 0 c153 0 160 -1 160 -20 0 -17 -7 -20 -40
-20 -33 0 -40 -3 -40 -20 0 -19 -7 -20 -160 -20 -100 0 -160 -4 -160 -10 0 -5
-18 -10 -40 -10 -22 0 -40 5 -40 10 0 6 -18 10 -40 10 l-40 0 0 -40 0 -40 -40
0 -40 0 0 40 0 40 -40 0 c-33 0 -40 3 -40 20 0 17 -7 20 -40 20 -22 0 -40 -4
-40 -10 0 -6 -47 -10 -120 -10 -73 0 -120 -4 -120 -10 0 -6 -87 -10 -240 -10
l-240 0 0 25 c0 25 -1 25 -80 25 -64 0 -80 3 -80 15 0 12 -16 15 -80 15 -73 0
-80 -2 -80 -20 0 -18 7 -20 80 -20 73 0 80 -2 80 -20 0 -17 7 -20 40 -20 l40
0 0 -50 0 -50 -80 0 c-47 0 -80 4 -80 10 0 6 -33 10 -80 10 -47 0 -80 -4 -80
-10 0 -6 33 -10 80 -10 47 0 80 -4 80 -10 0 -6 -60 -10 -160 -10 -153 0 -160
-1 -160 -20 0 -18 -7 -20 -80 -20 -47 0 -80 -4 -80 -10 0 -6 -33 -10 -80 -10
-47 0 -80 -4 -80 -10 0 -5 -18 -10 -40 -10 -33 0 -40 -3 -40 -20 0 -19 -7 -20
-240 -20 l-240 0 0 30 0 30 -80 0 c-47 0 -80 -4 -80 -10 0 -6 -33 -10 -80 -10
-47 0 -80 -4 -80 -10 0 -6 -33 -10 -80 -10 -47 0 -80 -4 -80 -10 0 -5 -18 -10
-40 -10 l-40 0 0 -40 0 -40 -40 0 c-33 0 -40 3 -40 20 0 18 -7 20 -80 20 -47
0 -80 -4 -80 -10 0 -6 -60 -10 -160 -10 -100 0 -160 -4 -160 -10 0 -5 18 -10
40 -10 22 0 40 -4 40 -10 0 -6 -47 -10 -120 -10 -73 0 -120 -4 -120 -10 0 -5
-18 -10 -40 -10 -33 0 -40 -3 -40 -20 0 -19 -7 -20 -160 -20 -100 0 -160 -4
-160 -10 0 -6 -33 -10 -80 -10 l-80 0 0 -30 0 -30 -160 0 c-100 0 -160 -4
-160 -10 0 -6 -47 -10 -120 -10 -73 0 -120 4 -120 10 0 6 -18 10 -40 10 -33 0
-40 3 -40 20 0 17 -7 20 -40 20 -22 0 -40 -4 -40 -10 0 -6 -47 -10 -120 -10
-73 0 -120 -4 -120 -10 0 -5 -18 -10 -40 -10 -22 0 -40 -4 -40 -10 0 -6 -33
-10 -80 -10 -47 0 -80 -4 -80 -10 0 -6 -33 -10 -80 -10 -73 0 -80 -2 -80 -20
0 -17 -7 -20 -40 -20 -22 0 -40 -4 -40 -10 0 -6 -33 -10 -80 -10 -64 0 -80 -3
-80 -15 0 -11 -11 -15 -40 -15 -29 0 -40 -4 -40 -15 0 -13 -24 -15 -160 -15
-100 0 -160 -4 -160 -10 0 -5 -18 -10 -40 -10 -37 0 -40 -2 -40 -28 l0 -29
-120 0 c-66 0 -120 4 -120 9 0 4 -54 8 -120 8 -73 0 -120 -4 -120 -10 0 -5
-18 -10 -40 -10 l-40 0 0 40 0 40 -120 0 c-113 0 -120 -1 -120 -20 0 -18 -7
-20 -80 -20 -47 0 -80 -4 -80 -10 0 -6 -33 -10 -80 -10 -47 0 -80 -4 -80 -10
0 -5 -18 -10 -40 -10 -22 0 -40 -4 -40 -10 0 -5 -18 -10 -40 -10 -22 0 -40 -4
-40 -10 0 -6 -60 -10 -160 -10 -153 0 -160 -1 -160 -20 0 -17 -7 -20 -40 -20
-22 0 -40 -4 -40 -10 0 -6 -47 -10 -120 -10 -73 0 -120 -4 -120 -10 0 -5 -18
-10 -40 -10 -33 0 -40 -3 -40 -20 0 -19 -7 -20 -120 -20 l-120 0 0 -40 0 -40
-40 0 c-33 0 -40 3 -40 20 0 17 -7 20 -40 20 -22 0 -40 5 -40 10 0 6 -18 10
-40 10 -38 0 -40 -2 -40 -30 l0 -30 -120 0 c-73 0 -120 -4 -120 -10 0 -6 -60
-10 -160 -10 -100 0 -160 4 -160 10 0 6 -33 10 -80 10 -73 0 -80 2 -80 20 0
17 -7 20 -40 20 -22 0 -40 -4 -40 -10 0 -6 -47 -10 -120 -10 -73 0 -120 -4
-120 -10 0 -5 -18 -10 -40 -10 l-40 0 0 -40 0 -40 -40 0 -40 0 0 -40 0 -40 40
0 c33 0 40 -3 40 -20 0 -18 -7 -20 -80 -20 -47 0 -80 -4 -80 -10 0 -6 -33 -10
-80 -10 -47 0 -80 -4 -80 -10 0 -5 -18 -10 -40 -10 -33 0 -40 -3 -40 -20 0
-19 -7 -20 -160 -20 -100 0 -160 -4 -160 -10 0 -6 -33 -10 -80 -10 -47 0 -80
-4 -80 -10 0 -5 -18 -10 -40 -10 -22 0 -40 -4 -40 -10 0 -6 -33 -10 -80 -10
-47 0 -80 -4 -80 -10 0 -6 -47 -10 -120 -10 -113 0 -120 -1 -120 -20 0 -19 -7
-20 -200 -20 -127 0 -200 -4 -200 -10 0 -6 -33 -10 -80 -10 l-80 0 0 30 0 30
-139 0 c-76 0 -166 3 -200 6 -52 6 -61 5 -61 -10 0 -13 -12 -16 -80 -16 -54 0
-80 -4 -80 -12 0 -8 32 -9 120 -5 l120 7 0 -55 0 -55 -200 0 c-127 0 -200 4
-200 10 0 6 -33 10 -80 10 -73 0 -80 2 -80 20 0 17 -7 20 -40 20 -22 0 -40 -4
-40 -10 0 -6 -73 -10 -200 -10 -127 0 -200 -4 -200 -10 0 -6 -33 -10 -80 -10
-47 0 -80 -4 -80 -10 0 -6 -33 -10 -80 -10 -47 0 -80 -4 -80 -10 0 -6 -47 -10
-120 -10 -73 0 -120 -4 -120 -10 0 -5 -18 -10 -40 -10 -22 0 -40 -4 -40 -10 0
-6 -60 -10 -160 -10 -100 0 -160 -4 -160 -10 0 -6 -73 -10 -200 -10 l-200 0 0
-30 0 -30 -160 0 c-100 0 -160 -4 -160 -10 0 -6 -60 -10 -160 -10 -100 0 -160
-4 -160 -10 0 -5 -18 -10 -40 -10 -22 0 -40 -4 -40 -10 0 -5 -18 -10 -40 -10
-22 0 -40 5 -40 10 0 6 -18 10 -40 10 -33 0 -40 -3 -40 -20 0 -19 -7 -20 -160
-20 -153 0 -160 1 -160 20 0 19 -7 20 -120 20 -113 0 -120 -1 -120 -20 0 -18
-7 -20 -80 -20 -47 0 -80 -4 -80 -10 0 -5 -18 -10 -40 -10 -22 0 -40 5 -40 10
0 6 -18 10 -40 10 l-40 0 0 40 0 40 -320 0 c-313 0 -320 0 -320 -20 0 -19 -7
-20 -200 -20 -127 0 -200 -4 -200 -10 0 -6 -60 -10 -160 -10 -100 0 -160 -4
-160 -10 0 -6 -47 -10 -120 -10 -73 0 -120 -4 -120 -10 0 -6 -73 -10 -200 -10
-127 0 -200 -4 -200 -10 0 -6 -113 -10 -320 -10 -207 0 -320 -4 -320 -10 0 -6
-113 -10 -320 -10 -313 0 -320 0 -320 -20 0 -20 -7 -20 -280 -20 -180 0 -280
-4 -280 -10 0 -7 -153 -10 -440 -10 -433 0 -440 0 -440 -20 0 -20 -7 -20 -800
-20 l-800 0 0 -40 0 -40 -80 0 -80 0 0 -5640 0 -5640 19200 0 19200 0 0 7208
0 7209 -122 6 c-66 4 -192 7 -280 7 -134 0 -158 -2 -158 -15 0 -12 -20 -15
-120 -15 -100 0 -120 3 -120 15 0 12 -16 15 -80 15 -64 0 -80 -3 -80 -15z
m-22560 -2120 l0 -25 -120 0 c-100 0 -120 -2 -120 -15 0 -11 -11 -15 -40 -15
l-40 0 0 40 0 40 160 0 160 0 0 -25z m400 -5 l0 -30 -160 0 -160 0 0 30 0 30
160 0 160 0 0 -30z m-12720 -995 c0 -13 -60 -15 -480 -15 -420 0 -480 2 -480
15 0 13 60 15 480 15 420 0 480 -2 480 -15z"/>
</g>
</svg>
